<svg width="96" height="96" fill="none" xmlns="http://www.w3.org/2000/svg"><path d="M38.778 11.007L49 11v19.073H32.067l.1 27.36h.011v3.307l.006 1.611h-.006v1.261l.002.008c.322.973 1.024 1.663 1.637 2.266.13.128.256.252.374.374l1.259.886 1.648.961L48 73.5V96L22.608 82.369l-.035-.055-.024.038c-4.209-2.62-9.975-10.032-10.502-16.662l-.033-.052.028-.005a11.09 11.09 0 01-.008-.114h.02v-8.087h.025L12 37.29l26.778-26.283z" fill="#CD9A67"/><path fill-rule="evenodd" clip-rule="evenodd" d="M49 0v19.419h15.35v32.96c-.334 1.287-1.18 2.836-2.07 3.574l-1.089.833-1.763 1.032L48 63.633V87l25.645-14.778.034-.055.023.038C77.867 69.537 83.568 62.133 84 55.392V.145h-.022V0H49zm15.35 52.953v-.008l-.013-.01-.003.038-.001.022.01-.023.002-.005.005-.014z" fill="#E7462C"/><path d="M48.998 0L49 37H12" fill="#5A2915"/></svg>